<?xml version="1.0" standalone="no"?>
<!DOCTYPE svg PUBLIC "-//W3C//DTD SVG 20010904//EN"
 "http://www.w3.org/TR/2001/REC-SVG-20010904/DTD/svg10.dtd">
<svg version="1.0" xmlns="http://www.w3.org/2000/svg"
 width="270.000000pt" height="270.000000pt" viewBox="0 0 270.000000 270.000000"
 preserveAspectRatio="xMidYMid meet">

<g transform="translate(0.000000,270.000000) scale(0.100000,-0.100000)"
fill="#000000" stroke="none">
<path d="M1290 1965 c0 -16 32 -64 47 -71 13 -6 5 -9 -31 -13 l-50 -6 -13 -54
c-13 -48 -12 -55 3 -72 9 -10 20 -16 25 -14 4 3 9 -5 11 -17 2 -18 18 -29 73
-50 39 -15 73 -27 78 -28 4 0 7 23 7 50 0 48 12 66 23 35 7 -16 -20 -104 -37
-123 -10 -10 -24 -8 -71 8 -74 25 -73 25 -78 -7 -4 -26 -4 -26 -6 5 -1 30 -3
31 -21 20 -32 -21 -24 -88 11 -88 18 0 19 -9 19 -145 l0 -145 -25 -6 c-44 -11
-27 -25 29 -23 l53 2 7 75 c3 41 6 115 6 163 0 48 5 91 10 94 6 4 10 -8 11
-27 1 -18 4 -94 8 -168 l6 -135 53 -3 c54 -3 71 11 27 22 l-25 6 0 154 c0 116
3 155 13 159 7 3 23 38 36 79 l23 73 -24 80 -24 80 -48 3 -47 3 31 29 c50 47
41 60 -40 60 -38 0 -70 -2 -70 -5z"/>
</g>
</svg>
